<mxfile host="app.diagrams.net" agent="Mozilla/5.0 (X11; Linux x86_64; rv:132.0) Gecko/20100101 Firefox/132.0" version="24.8.8">
  <diagram name="Page-1" id="UpXawP2ftscYla-WVHP0">
    <mxGraphModel dx="954" dy="621" grid="1" gridSize="10" guides="1" tooltips="1" connect="1" arrows="0" fold="1" page="1" pageScale="1" pageWidth="850" pageHeight="1100" math="0" shadow="0">
      <root>
        <mxCell id="0" />
        <mxCell id="1" parent="0" />
        <mxCell id="fnuirPBvFrBBOB3b4ILK-4" style="edgeStyle=orthogonalEdgeStyle;rounded=0;orthogonalLoop=1;jettySize=auto;html=1;exitX=1;exitY=0.5;exitDx=0;exitDy=0;entryX=0;entryY=0.5;entryDx=0;entryDy=0;" edge="1" parent="1" source="fnuirPBvFrBBOB3b4ILK-1" target="fnuirPBvFrBBOB3b4ILK-22">
          <mxGeometry relative="1" as="geometry">
            <mxPoint x="350" y="360" as="targetPoint" />
          </mxGeometry>
        </mxCell>
        <mxCell id="fnuirPBvFrBBOB3b4ILK-5" value="&amp;lt;&amp;lt;LEFT CLICK&amp;gt;&amp;gt;" style="edgeLabel;html=1;align=center;verticalAlign=middle;resizable=0;points=[];" vertex="1" connectable="0" parent="fnuirPBvFrBBOB3b4ILK-4">
          <mxGeometry x="-0.0286" y="4" relative="1" as="geometry">
            <mxPoint as="offset" />
          </mxGeometry>
        </mxCell>
        <mxCell id="fnuirPBvFrBBOB3b4ILK-1" value="" style="ellipse;whiteSpace=wrap;html=1;aspect=fixed;fillColor=#a51d2d;fillStyle=solid;" vertex="1" parent="1">
          <mxGeometry x="140" y="345" width="30" height="30" as="geometry" />
        </mxCell>
        <mxCell id="fnuirPBvFrBBOB3b4ILK-8" style="edgeStyle=orthogonalEdgeStyle;rounded=0;orthogonalLoop=1;jettySize=auto;html=1;exitX=0.5;exitY=0;exitDx=0;exitDy=0;entryX=0.5;entryY=1;entryDx=0;entryDy=0;" edge="1" parent="1" source="fnuirPBvFrBBOB3b4ILK-22" target="fnuirPBvFrBBOB3b4ILK-23">
          <mxGeometry relative="1" as="geometry">
            <mxPoint x="390" y="320" as="sourcePoint" />
            <mxPoint x="390" y="230" as="targetPoint" />
          </mxGeometry>
        </mxCell>
        <mxCell id="fnuirPBvFrBBOB3b4ILK-9" value="&amp;lt;&amp;lt;RIGHT CLICK&amp;gt;&amp;gt;" style="edgeLabel;html=1;align=center;verticalAlign=middle;resizable=0;points=[];" vertex="1" connectable="0" parent="fnuirPBvFrBBOB3b4ILK-8">
          <mxGeometry x="-0.1333" y="-5" relative="1" as="geometry">
            <mxPoint as="offset" />
          </mxGeometry>
        </mxCell>
        <mxCell id="fnuirPBvFrBBOB3b4ILK-10" style="edgeStyle=orthogonalEdgeStyle;rounded=0;orthogonalLoop=1;jettySize=auto;html=1;exitX=0;exitY=0.5;exitDx=0;exitDy=0;entryX=0;entryY=0.5;entryDx=0;entryDy=0;" edge="1" parent="1" source="fnuirPBvFrBBOB3b4ILK-23" target="fnuirPBvFrBBOB3b4ILK-22">
          <mxGeometry relative="1" as="geometry">
            <mxPoint x="300" y="200" as="sourcePoint" />
            <mxPoint x="320" y="360" as="targetPoint" />
            <Array as="points">
              <mxPoint x="300" y="200" />
              <mxPoint x="300" y="360" />
            </Array>
          </mxGeometry>
        </mxCell>
        <mxCell id="fnuirPBvFrBBOB3b4ILK-11" value="&amp;lt;&amp;lt;LEFT CLICK&amp;gt;&amp;gt;" style="edgeLabel;html=1;align=center;verticalAlign=middle;resizable=0;points=[];" vertex="1" connectable="0" parent="fnuirPBvFrBBOB3b4ILK-10">
          <mxGeometry x="-0.3238" y="2" relative="1" as="geometry">
            <mxPoint x="-32" y="46" as="offset" />
          </mxGeometry>
        </mxCell>
        <mxCell id="fnuirPBvFrBBOB3b4ILK-6" style="edgeStyle=orthogonalEdgeStyle;rounded=0;orthogonalLoop=1;jettySize=auto;html=1;exitX=1;exitY=0.5;exitDx=0;exitDy=0;entryX=0.5;entryY=1;entryDx=0;entryDy=0;" edge="1" parent="1" source="fnuirPBvFrBBOB3b4ILK-22" target="fnuirPBvFrBBOB3b4ILK-22">
          <mxGeometry relative="1" as="geometry">
            <mxPoint x="430" y="360" as="sourcePoint" />
            <mxPoint x="390" y="400" as="targetPoint" />
            <Array as="points">
              <mxPoint x="500" y="360" />
              <mxPoint x="500" y="460" />
              <mxPoint x="390" y="460" />
            </Array>
          </mxGeometry>
        </mxCell>
        <mxCell id="fnuirPBvFrBBOB3b4ILK-7" value="&amp;lt;&amp;lt;LEFT CLICK&amp;gt;&amp;gt;" style="edgeLabel;html=1;align=center;verticalAlign=middle;resizable=0;points=[];" vertex="1" connectable="0" parent="fnuirPBvFrBBOB3b4ILK-6">
          <mxGeometry x="0.4" y="-2" relative="1" as="geometry">
            <mxPoint x="81" y="-38" as="offset" />
          </mxGeometry>
        </mxCell>
        <mxCell id="fnuirPBvFrBBOB3b4ILK-22" value="Drawing a line" style="rounded=1;whiteSpace=wrap;html=1;" vertex="1" parent="1">
          <mxGeometry x="330" y="330" width="120" height="60" as="geometry" />
        </mxCell>
        <mxCell id="fnuirPBvFrBBOB3b4ILK-23" value="Shape finished" style="rounded=1;whiteSpace=wrap;html=1;" vertex="1" parent="1">
          <mxGeometry x="330" y="170" width="120" height="60" as="geometry" />
        </mxCell>
      </root>
    </mxGraphModel>
  </diagram>
</mxfile>
